<mxfile host="app.diagrams.net" modified="2023-07-27T21:57:19.772Z" agent="Mozilla/5.0 (Windows NT 10.0; Win64; x64) AppleWebKit/537.36 (KHTML, like Gecko) Chrome/114.0.0.0 Safari/537.36 Edg/114.0.1823.82" version="21.6.2" etag="UHxRFtkWzu526vl5LJbQ" type="github">
  <diagram name="PÃ¡gina-1" id="rQupccUaHD7XEbO3_BTj">
    <mxGraphModel>
      <root>
        <mxCell id="0" />
        <mxCell id="1" parent="0" />
      </root>
    </mxGraphModel>
  </diagram>
</mxfile>
